<svg width="24" height="24" viewBox="0 0 24 24" fill="none" xmlns="http://www.w3.org/2000/svg">
<rect width="24" height="24" rx="12" fill="#587B78"/>
<path d="M3.5 9.882V6.118C3.5001 5.93234 3.55188 5.75037 3.64955 5.59247C3.74722 5.43458 3.88692 5.30699 4.053 5.224L7.053 3.724C7.1918 3.65464 7.34484 3.61853 7.5 3.61853C7.65516 3.61853 7.8082 3.65464 7.947 3.724L10.947 5.224C11.1131 5.30699 11.2528 5.43458 11.3504 5.59247C11.4481 5.75037 11.4999 5.93234 11.5 6.118V9.882C11.5001 10.0678 11.4484 10.25 11.3507 10.4081C11.253 10.5662 11.1132 10.6939 10.947 10.777L7.947 12.277C7.8082 12.3464 7.65516 12.3825 7.5 12.3825C7.34484 12.3825 7.1918 12.3464 7.053 12.277L4.053 10.777C3.88677 10.6939 3.74697 10.5662 3.64929 10.4081C3.55161 10.25 3.49991 10.0678 3.5 9.882ZM4.54 6.306C4.48845 6.42814 4.48751 6.56575 4.53739 6.68857C4.58727 6.8114 4.68389 6.90939 4.806 6.961L7 7.887V10.5C7 10.6326 7.05268 10.7598 7.14645 10.8536C7.24021 10.9473 7.36739 11 7.5 11C7.63261 11 7.75979 10.9473 7.85355 10.8536C7.94732 10.7598 8 10.6326 8 10.5V7.887L10.194 6.961C10.3134 6.9076 10.4071 6.80954 10.4551 6.68784C10.503 6.56615 10.5014 6.43052 10.4505 6.31003C10.3996 6.18954 10.3035 6.09379 10.1828 6.04331C10.0622 5.99283 9.92653 5.99164 9.805 6.04L7.5 7.013L5.194 6.04C5.07186 5.98845 4.93425 5.98751 4.81143 6.03739C4.6886 6.08727 4.59061 6.18389 4.539 6.306H4.54ZM4.042 16.25V11.89L5.042 12.39V16.25C5.042 16.665 5.378 17 5.792 17H6.051C6.16576 16.4349 6.47236 15.9268 6.91887 15.5618C7.36538 15.1969 7.92432 14.9975 8.501 14.9975C9.07768 14.9975 9.63662 15.1969 10.0831 15.5618C10.5296 15.9268 10.8362 16.4349 10.951 17H12.051C12.1835 16.3504 12.5686 15.78 13.1217 15.4143C13.6747 15.0486 14.3504 14.9175 15 15.05V6.75C15 6.55109 14.921 6.36032 14.7803 6.21967C14.6397 6.07902 14.4489 6 14.25 6H12.496C12.4749 5.64241 12.3582 5.29705 12.158 5H14.249C15.216 5 15.999 5.784 15.999 6.75V8H16.881C17.1597 8.00001 17.4329 8.07767 17.67 8.22428C17.907 8.37088 18.0985 8.58063 18.223 8.83L19.841 12.065C19.945 12.274 20 12.503 20 12.736V16.5C20 16.8978 19.842 17.2794 19.5607 17.5607C19.2794 17.842 18.8978 18 18.5 18H16.95C16.8352 18.5651 16.5286 19.0732 16.0821 19.4382C15.6356 19.8031 15.0767 20.0025 14.5 20.0025C13.9233 20.0025 13.3644 19.8031 12.9179 19.4382C12.4714 19.0732 12.1648 18.5651 12.05 18H10.95C10.8352 18.5651 10.5286 19.0732 10.0821 19.4382C9.63562 19.8031 9.07668 20.0025 8.5 20.0025C7.92332 20.0025 7.36438 19.8031 6.91787 19.4382C6.47136 19.0732 6.16476 18.5651 6.05 18H5.791C5.32687 18 4.88175 17.8156 4.55356 17.4874C4.22537 17.1592 4.041 16.7141 4.041 16.25H4.042ZM16.95 17H18.5C18.6326 17 18.7598 16.9473 18.8536 16.8536C18.9473 16.7598 19 16.6326 19 16.5V13H16V15.5C16.48 15.86 16.827 16.39 16.95 17ZM18.692 12L17.33 9.277C17.2886 9.19387 17.2248 9.12392 17.1459 9.07499C17.0669 9.02606 16.9759 9.0001 16.883 9H16V12H18.69H18.692ZM7 17.5C7 17.8978 7.15804 18.2794 7.43934 18.5607C7.72064 18.842 8.10218 19 8.5 19C8.89782 19 9.27936 18.842 9.56066 18.5607C9.84196 18.2794 10 17.8978 10 17.5C10 17.1022 9.84196 16.7206 9.56066 16.4393C9.27936 16.158 8.89782 16 8.5 16C8.10218 16 7.72064 16.158 7.43934 16.4393C7.15804 16.7206 7 17.1022 7 17.5ZM14.5 19C14.8978 19 15.2794 18.842 15.5607 18.5607C15.842 18.2794 16 17.8978 16 17.5C16 17.1022 15.842 16.7206 15.5607 16.4393C15.2794 16.158 14.8978 16 14.5 16C14.1022 16 13.7206 16.158 13.4393 16.4393C13.158 16.7206 13 17.1022 13 17.5C13 17.8978 13.158 18.2794 13.4393 18.5607C13.7206 18.842 14.1022 19 14.5 19Z" fill="#F6F6F6"/>
</svg>
