<svg width="24" height="24" viewBox="0 0 24 24" fill="none" xmlns="http://www.w3.org/2000/svg">
<rect width="24" height="24" rx="12" fill="#587B78"/>
<path d="M8.53 6.008C8.97544 5.2321 9.66814 4.62793 10.4974 4.29207C11.3266 3.9562 12.2445 3.90804 13.1043 4.15527C13.9642 4.40251 14.7163 4.93086 15.2405 5.65588C15.7647 6.38091 16.0307 7.26074 15.996 8.15474C15.9613 9.04873 15.6278 9.90528 15.049 10.5875C14.4701 11.2697 13.6793 11.7381 12.8029 11.9179C11.9265 12.0977 11.0151 11.9785 10.2144 11.5793C9.41368 11.1802 8.76992 10.5241 8.386 9.716C8.1295 9.90364 7.81981 10.0045 7.502 10.004H7.002V10.259C7.002 10.449 7.074 10.622 7.192 10.753C7.29284 10.639 7.426 10.5584 7.57377 10.522C7.72154 10.4856 7.8769 10.4951 8.01915 10.5491C8.16141 10.6032 8.28382 10.6994 8.37008 10.8247C8.45634 10.9501 8.50235 11.0988 8.502 11.251C8.50193 11.3555 8.48001 11.4589 8.43765 11.5544C8.39529 11.65 8.33343 11.7356 8.25603 11.8058C8.17864 11.8761 8.08741 11.9294 7.98822 11.9623C7.88902 11.9952 7.78403 12.007 7.68 11.997C7.22962 11.9812 6.80296 11.7912 6.48994 11.4669C6.17692 11.1427 6.00198 10.7097 6.002 10.259V6.507C6.002 6.37439 6.05468 6.24721 6.14845 6.15345C6.24221 6.05968 6.36939 6.007 6.502 6.007H8.502L8.53 6.008ZM9.002 8.119C9.03315 8.90372 9.37078 9.64494 9.94237 10.1835C10.514 10.722 11.274 11.015 12.0592 10.9994C12.8443 10.9838 13.5921 10.661 14.1419 10.1002C14.6917 9.53937 14.9996 8.78534 14.9996 8C14.9996 7.21466 14.6917 6.46063 14.1419 5.89982C13.5921 5.33902 12.8443 5.01617 12.0592 5.00059C11.274 4.98501 10.514 5.27795 9.94237 5.8165C9.37078 6.35505 9.03315 7.09627 9.002 7.881V8.119ZM8.002 7.862V7.007H7.002V9.004H7.502C7.63461 9.004 7.76179 8.95132 7.85555 8.85755C7.94932 8.76378 8.002 8.63661 8.002 8.504V8.138C7.99889 8.04602 7.99889 7.95397 8.002 7.862ZM5 15C5 13.887 5.903 13 7.009 13H17C17.5304 13 18.0391 13.2107 18.4142 13.5858C18.7893 13.9609 19 14.4696 19 15C19 16.691 18.167 17.966 16.865 18.797C15.583 19.614 13.855 20 12 20C10.145 20 8.417 19.614 7.135 18.797C5.833 17.967 5 16.69 5 15ZM7.009 14C6.448 14 6 14.447 6 15C6 16.309 6.622 17.284 7.673 17.953C8.743 18.636 10.265 19 12 19C13.735 19 15.257 18.636 16.327 17.953C17.377 17.283 18 16.31 18 15C18 14.7348 17.8946 14.4804 17.7071 14.2929C17.5196 14.1054 17.2652 14 17 14H7.009Z" fill="#F6F6F6"/>
</svg>
