<svg width="20" height="20" viewBox="0 0 20 20" fill="none" xmlns="http://www.w3.org/2000/svg">
<g clip-path="url(#clip0_513_379)">
<path d="M5 4.58333C5 3.80978 5.30729 3.06792 5.85427 2.52094C6.40125 1.97396 7.14312 1.66667 7.91667 1.66667H10.8333V7.5H7.91667C7.14312 7.5 6.40125 7.19271 5.85427 6.64573C5.30729 6.09875 5 5.35688 5 4.58333Z" stroke="#F6F6F6" stroke-width="2" stroke-linecap="round" stroke-linejoin="round"/>
<path d="M10.8333 1.66667H13.7499C14.1329 1.66667 14.5122 1.74211 14.8661 1.88868C15.2199 2.03526 15.5415 2.2501 15.8123 2.52094C16.0832 2.79178 16.298 3.11331 16.4446 3.46717C16.5911 3.82104 16.6666 4.20031 16.6666 4.58333C16.6666 4.96635 16.5911 5.34563 16.4446 5.69949C16.298 6.05336 16.0832 6.37489 15.8123 6.64573C15.5415 6.91657 15.2199 7.13141 14.8661 7.27798C14.5122 7.42456 14.1329 7.5 13.7499 7.5H10.8333V1.66667Z" stroke="#F6F6F6" stroke-width="2" stroke-linecap="round" stroke-linejoin="round"/>
<path d="M10.8333 10.4167C10.8333 10.0336 10.9087 9.65437 11.0553 9.30051C11.2018 8.94664 11.4167 8.62511 11.6875 8.35427C11.9584 8.08343 12.2799 7.86859 12.6338 7.72202C12.9876 7.57544 13.3669 7.5 13.7499 7.5C14.1329 7.5 14.5122 7.57544 14.8661 7.72202C15.2199 7.86859 15.5415 8.08343 15.8123 8.35427C16.0832 8.62511 16.298 8.94664 16.4446 9.30051C16.5911 9.65437 16.6666 10.0336 16.6666 10.4167C16.6666 10.7997 16.5911 11.179 16.4446 11.5328C16.298 11.8867 16.0832 12.2082 15.8123 12.4791C15.5415 12.7499 15.2199 12.9647 14.8661 13.1113C14.5122 13.2579 14.1329 13.3333 13.7499 13.3333C13.3669 13.3333 12.9876 13.2579 12.6338 13.1113C12.2799 12.9647 11.9584 12.7499 11.6875 12.4791C11.4167 12.2082 11.2018 11.8867 11.0553 11.5328C10.9087 11.179 10.8333 10.7997 10.8333 10.4167V10.4167Z" stroke="#F6F6F6" stroke-width="2" stroke-linecap="round" stroke-linejoin="round"/>
<path d="M5 16.25C5 15.4765 5.30729 14.7346 5.85427 14.1876C6.40125 13.6406 7.14312 13.3333 7.91667 13.3333H10.8333V16.25C10.8333 17.0235 10.526 17.7654 9.97906 18.3124C9.43208 18.8594 8.69021 19.1667 7.91667 19.1667C7.14312 19.1667 6.40125 18.8594 5.85427 18.3124C5.30729 17.7654 5 17.0235 5 16.25Z" stroke="#F6F6F6" stroke-width="2" stroke-linecap="round" stroke-linejoin="round"/>
<path d="M5 10.4167C5 9.64312 5.30729 8.90125 5.85427 8.35427C6.40125 7.80729 7.14312 7.5 7.91667 7.5H10.8333V13.3333H7.91667C7.14312 13.3333 6.40125 13.026 5.85427 12.4791C5.30729 11.9321 5 11.1902 5 10.4167Z" stroke="#F6F6F6" stroke-width="2" stroke-linecap="round" stroke-linejoin="round"/>
</g>
<defs>
<clipPath id="clip0_513_379">
<rect width="20" height="20" fill="white"/>
</clipPath>
</defs>
</svg>
