<svg width="24" height="20" viewBox="0 0 24 20" fill="none" xmlns="http://www.w3.org/2000/svg">
<path d="M4.91431 2.5L4.98406 3.18375L6.29656 15.5469L6.34381 15.9769L6.83581 16.0938L12.7893 17.4806L12.9768 17.5194L13.1876 17.4806L19.1411 16.1131L19.6331 15.9962L19.6796 15.5663L21.0161 3.18375L21.0858 2.51938H20.2661L5.73481 2.5H4.91431ZM6.55456 3.75L19.4456 3.76938L18.2268 15.0194L13.0001 16.2312L7.75006 15.0188L6.55456 3.75ZM8.35981 5.625L8.85181 10.2931H15.2733L15.0626 12.3044L13.0001 12.7731H12.9768L10.9143 12.3044L10.7973 11.0156H8.92231L9.17956 13.4962L12.9776 14.375H13.0001L16.7973 13.4962L17.3126 8.75H10.5393L10.3751 7.16812H17.4768L17.6403 5.625H8.35981Z" fill="#F6F6F6"/>
</svg>
