<svg width="24" height="24" viewBox="0 0 24 24" fill="none" xmlns="http://www.w3.org/2000/svg">
<path d="M13.75 11.25C13.75 10.6533 13.9871 10.081 14.409 9.65901C14.831 9.23705 15.4033 9 16 9H18.25C18.4489 9 18.6397 9.07902 18.7803 9.21967C18.921 9.36032 19 9.55109 19 9.75C19 9.94891 18.921 10.1397 18.7803 10.2803C18.6397 10.421 18.4489 10.5 18.25 10.5H16C15.8011 10.5 15.6103 10.579 15.4697 10.7197C15.329 10.8603 15.25 11.0511 15.25 11.25V12C15.25 12.1989 15.329 12.3897 15.4697 12.5303C15.6103 12.671 15.8011 12.75 16 12.75H16.75C17.3467 12.75 17.919 12.9871 18.341 13.409C18.7629 13.831 19 14.4033 19 15V15.75C19 16.3467 18.7629 16.919 18.341 17.341C17.919 17.7629 17.3467 18 16.75 18H14.5C14.3011 18 14.1103 17.921 13.9697 17.7803C13.829 17.6397 13.75 17.4489 13.75 17.25C13.75 17.0511 13.829 16.8603 13.9697 16.7197C14.1103 16.579 14.3011 16.5 14.5 16.5H16.75C16.9489 16.5 17.1397 16.421 17.2803 16.2803C17.421 16.1397 17.5 15.9489 17.5 15.75V15C17.5 14.8011 17.421 14.6103 17.2803 14.4697C17.1397 14.329 16.9489 14.25 16.75 14.25H16C15.4033 14.25 14.831 14.0129 14.409 13.591C13.9871 13.169 13.75 12.5967 13.75 12V11.25ZM13 9.75C13 9.55109 12.921 9.36032 12.7803 9.21967C12.6397 9.07902 12.4489 9 12.25 9C12.0511 9 11.8603 9.07902 11.7197 9.21967C11.579 9.36032 11.5 9.55109 11.5 9.75V15.75C11.5 15.9489 11.421 16.1397 11.2803 16.2803C11.1397 16.421 10.9489 16.5 10.75 16.5H9.25C9.05109 16.5 8.86032 16.579 8.71967 16.7197C8.57902 16.8603 8.5 17.0511 8.5 17.25C8.5 17.4489 8.57902 17.6397 8.71967 17.7803C8.86032 17.921 9.05109 18 9.25 18H10.75C11.3467 18 11.919 17.7629 12.341 17.341C12.7629 16.919 13 16.3467 13 15.75V9.75ZM4 6.75C4 5.75544 4.39509 4.80161 5.09835 4.09835C5.80161 3.39509 6.75544 3 7.75 3H18.25C19.2446 3 20.1984 3.39509 20.9016 4.09835C21.6049 4.80161 22 5.75544 22 6.75V17.25C22 18.2446 21.6049 19.1984 20.9016 19.9016C20.1984 20.6049 19.2446 21 18.25 21H7.75C6.75544 21 5.80161 20.6049 5.09835 19.9016C4.39509 19.1984 4 18.2446 4 17.25V6.75ZM7.75 4.5C7.15326 4.5 6.58097 4.73705 6.15901 5.15901C5.73705 5.58097 5.5 6.15326 5.5 6.75V17.25C5.5 17.8467 5.73705 18.419 6.15901 18.841C6.58097 19.2629 7.15326 19.5 7.75 19.5H18.25C18.8467 19.5 19.419 19.2629 19.841 18.841C20.2629 18.419 20.5 17.8467 20.5 17.25V6.75C20.5 6.15326 20.2629 5.58097 19.841 5.15901C19.419 4.73705 18.8467 4.5 18.25 4.5H7.75Z" fill="#F6F6F6"/>
</svg>
