<svg width="36" height="36" viewBox="0 0 36 36" fill="none" xmlns="http://www.w3.org/2000/svg">
<path d="M31 17.6666V34.3333H4.33337V17.6666" stroke="white" stroke-width="2" stroke-linecap="round" stroke-linejoin="round"/>
<path d="M34.3333 9.33325H1V17.6666H34.3333V9.33325Z" stroke="white" stroke-width="2" stroke-linecap="round" stroke-linejoin="round"/>
<path d="M17.6667 34.3333V9.33325" stroke="white" stroke-width="2" stroke-linecap="round" stroke-linejoin="round"/>
<path d="M17.6667 9.33333H10.1667C9.0616 9.33333 8.00179 8.89435 7.22039 8.11294C6.43899 7.33154 6 6.27174 6 5.16667C6 4.0616 6.43899 3.00179 7.22039 2.22039C8.00179 1.43899 9.0616 1 10.1667 1C16 1 17.6667 9.33333 17.6667 9.33333Z" stroke="white" stroke-width="2" stroke-linecap="round" stroke-linejoin="round"/>
<path d="M17.6667 9.33333H25.1667C26.2718 9.33333 27.3316 8.89435 28.113 8.11294C28.8944 7.33154 29.3334 6.27174 29.3334 5.16667C29.3334 4.0616 28.8944 3.00179 28.113 2.22039C27.3316 1.43899 26.2718 1 25.1667 1C19.3334 1 17.6667 9.33333 17.6667 9.33333Z" stroke="white" stroke-width="2" stroke-linecap="round" stroke-linejoin="round"/>
</svg>
